<?xml version="1.0" encoding="UTF-8"?>
<svg xmlns="http://www.w3.org/2000/svg" viewBox="0 0 128 128">
  <g opacity=".36">
    <path fill="#484848" d="M91.05 6C59.01-8.94 20.93 4.92 6 36.95-8.94 68.98 4.92 107.06 36.96 122c32.03 14.94 70.11 1.08 85.05-30.96 14.94-32.03 1.08-70.11-30.96-85.05Zm-5.07 10.87c24.6 11.5 36.21 39.98 26.66 65.39L83.28 68.57c2.55-10.63-4.01-21.32-14.65-23.87a19.795 19.795 0 0 0-20.52 7.47L18.75 38.48C32.08 14.83 61.36 5.42 85.98 16.87ZM75.6 69.41c-2.98 6.41-10.6 9.18-17.01 6.2s-9.18-10.6-6.2-17.01c2.99-6.42 10.61-9.18 17.01-6.19 6.4 2.99 9.17 10.6 6.19 17Zm-33.58 41.72c-24.59-11.5-36.2-39.98-26.66-65.4l29.36 13.69c-2.55 10.63 4.01 21.32 14.65 23.87a19.795 19.795 0 0 0 20.52-7.47l29.36 13.69c-13.33 23.65-42.62 33.06-67.23 21.61Z"/>
    <circle cx="64" cy="64" r="12.8" fill="#fff"/>
    <path d="M72.37 46.06a20.016 20.016 0 0 1 10.91 22.52l29.27 13.65c10.46-26.63-2.65-56.69-29.28-67.15-24.32-9.55-51.94.5-64.43 23.45l29.27 13.65c5.53-7.35 15.56-10.18 24.26-6.12Z"/>
    <path d="M42.11 110.95c24.74 11.54 53.83 1.93 67.06-21.47L79.9 75.83c-6.51 8.79-18.91 10.63-27.7 4.12a19.789 19.789 0 0 1-7.47-20.52L15.46 45.78c-9.51 25.35 2.1 53.75 26.65 65.17Z" fill="none"/>
  </g>
</svg>